# xmcd
# 
# Track frame offsets:
#     150
#     41865
#     85307
#     107835
#     139240
#     167502
# 
# Disc length: 2606
# 
# Revision: 2
# Processed by: cddbd v1.5.2PL0 Copyright (c) Steve Scherf et al.
# Submitted via: BonkEnc v1.0.8
# 
DISCID=4d0a2c06
DTITLE=Dave Liebman, Richie Beirach, Ron McClure, Billy Hart - Quest II
DYEAR=1986
DGENRE=Contemporary Jazz
TTITLE0=Gargoyles
TTITLE1=Pendulum
TTITLE2=The Hollow Men
TTITLE3=Carissima
TTITLE4=Third Visit
TTITLE5=Johnny B
EXTD=YEAR: 1987
EXTT0=
EXTT1=
EXTT2=
EXTT3=
EXTT4=
EXTT5=
PLAYORDER=
